<svg xmlns="http://www.w3.org/2000/svg" width="17" height="17" fill="none" viewBox="0 0 17 17">
  <path fill="#000" fill-opacity=".5" d="M15.781 13.844c.281.312.281.781-.031 1.062l-.875.875c-.281.313-.75.313-1.063 0l-3.093-3.094a.732.732 0 0 1-.219-.53v-.532A6.459 6.459 0 0 1 6.5 13 6.495 6.495 0 0 1 0 6.5C0 2.937 2.906 0 6.5 0 10.063 0 13 2.938 13 6.5a6.516 6.516 0 0 1-1.375 4h.5c.188 0 .375.094.531.219l3.125 3.125ZM6.5 10.5c2.188 0 4-1.781 4-4 0-2.188-1.813-4-4-4-2.219 0-4 1.813-4 4 0 2.219 1.781 4 4 4Z"/>
  <a>
    <path d="M0-1.2h16v18.4H0z"/>
  </a>
</svg>
