<svg width="24" height="28" viewBox="0 0 24 28" fill="none" xmlns="http://www.w3.org/2000/svg">
<path d="M1.122 24.378L11.707 3.208C11.915 2.75 12.123 2.667 12.373 2.667C12.582 2.667 12.832 2.75 13.082 3.167C14.582 5.542 15.249 8.292 15.249 11.167C15.249 15.168 13.207 18.919 10.206 24.961C9.873 25.628 9.623 25.753 9.04 25.753H1.705C1.163 25.753 0.872 25.545 0.872 25.128C0.872 24.92 0.913 24.795 1.122 24.378ZM16.499 14.377C17.332 13.127 17.582 13.043 17.791 13.043C18 13.043 18.124 13.126 18.499 13.877L23.792 24.46C23.958 24.794 24 24.919 24 25.085C24 25.419 23.708 25.752 23.083 25.752H15.623C15.123 25.752 14.749 25.336 14.54 24.544C14.29 23.544 14.207 22.668 14.207 21.627C14.207 18.71 15.499 15.877 16.499 14.377Z" fill="#00A0FF" fill-opacity="0.81"/>
</svg>
