<svg width="25" height="25" viewBox="0 0 25 25" fill="none" xmlns="http://www.w3.org/2000/svg">
<rect x="0.978027" y="0.236633" width="24" height="24" rx="12" fill="#E9E9E9"/>
<g clip-path="url(#clip0_38_175)">
<path d="M10.6946 14.9966V8.01482H13.4492C13.9764 8.01482 14.4264 8.10914 14.7992 8.29777C15.1742 8.48414 15.4594 8.74891 15.6548 9.09209C15.8526 9.433 15.9514 9.83414 15.9514 10.2955C15.9514 10.7591 15.8514 11.158 15.6514 11.4921C15.4514 11.8239 15.1617 12.0785 14.7821 12.2557C14.4048 12.433 13.948 12.5216 13.4117 12.5216H11.5673V11.3353H13.173C13.4548 11.3353 13.6889 11.2966 13.8753 11.2194C14.0617 11.1421 14.2003 11.0262 14.2912 10.8716C14.3844 10.7171 14.431 10.525 14.431 10.2955C14.431 10.0637 14.3844 9.86823 14.2912 9.70914C14.2003 9.55004 14.0605 9.42959 13.8719 9.34777C13.6855 9.26368 13.4503 9.22164 13.1662 9.22164H12.1707V14.9966H10.6946ZM14.4651 11.8194L16.2003 14.9966H14.5707L12.873 11.8194H14.4651Z" fill="#211922"/>
</g>
<defs>
<clipPath id="clip0_38_175">
<rect width="24" height="24" fill="white" transform="translate(0.978027 0.236633)"/>
</clipPath>
</defs>
</svg>
