<svg width="25" height="25" viewBox="0 0 25 25" fill="none" xmlns="http://www.w3.org/2000/svg">
<g clip-path="url(#clip0_38_172)">
<path d="M18.978 12.7366C18.781 12.7366 18.5859 12.6977 18.4038 12.6222C18.2218 12.5468 18.0564 12.4362 17.9172 12.2968C17.7779 12.1574 17.6674 11.992 17.5921 11.8099C17.5167 11.6278 17.478 11.4327 17.478 11.2356C17.4781 11.0386 17.517 10.8435 17.5924 10.6615C17.6679 10.4794 17.7785 10.3141 17.9179 10.1748C18.0572 10.0355 18.2227 9.92501 18.4048 9.84966C18.5868 9.77431 18.782 9.73557 18.979 9.73563C19.377 9.73577 19.7586 9.89398 20.0399 10.1755C20.3212 10.457 20.4792 10.8387 20.479 11.2366C20.4789 11.6346 20.3207 12.0162 20.0392 12.2975C19.7577 12.5788 19.376 12.7368 18.978 12.7366ZM12.978 12.7366C12.5801 12.7365 12.1985 12.5783 11.9172 12.2968C11.6359 12.0153 11.4779 11.6336 11.478 11.2356C11.4782 10.8377 11.6364 10.4561 11.9179 10.1748C12.1994 9.89346 12.5811 9.7355 12.979 9.73563C13.377 9.73577 13.7586 9.89398 14.0399 10.1755C14.3212 10.457 14.4792 10.8387 14.479 11.2366C14.4789 11.6346 14.3207 12.0162 14.0392 12.2975C13.7577 12.5788 13.376 12.7368 12.978 12.7366ZM6.97803 12.7366C6.58007 12.7365 6.19846 12.5783 5.91716 12.2968C5.63586 12.0153 5.47789 11.6336 5.47803 11.2356C5.47816 10.8377 5.63637 10.4561 5.91787 10.1748C6.19936 9.89346 6.58107 9.7355 6.97903 9.73563C7.37698 9.73577 7.75859 9.89398 8.03989 10.1755C8.3212 10.457 8.47916 10.8387 8.47903 11.2366C8.47889 11.6346 8.32068 12.0162 8.03919 12.2975C7.7577 12.5788 7.37598 12.7368 6.97803 12.7366ZM12.978 0.236633C6.90303 0.236633 1.97803 5.16163 1.97803 11.2366C1.97803 13.8896 2.91803 16.3226 4.48203 18.2226L2.97803 24.2366L8.31403 21.1876C9.77224 21.8772 11.365 22.2354 12.978 22.2366C19.053 22.2366 23.978 17.3116 23.978 11.2366C23.978 5.16163 19.053 0.236633 12.978 0.236633Z" fill="#5F5F5F"/>
</g>
<defs>
<clipPath id="clip0_38_172">
<rect width="24" height="24" fill="white" transform="translate(0.978027 0.236633)"/>
</clipPath>
</defs>
</svg>
