<svg width="21" height="21" viewBox="0 0 21 21" fill="none" xmlns="http://www.w3.org/2000/svg">
<path fill-rule="evenodd" clip-rule="evenodd" d="M0.217285 10.242C0.217285 4.92436 4.46706 0.132385 10.332 0.132385C16.0656 0.132385 20.4063 4.83337 20.4063 10.2117C20.4063 16.4494 15.3186 20.3214 10.3118 20.3214C8.65628 20.3214 6.81908 19.8765 5.34528 19.0071C4.83047 18.6937 4.3964 18.4612 3.84121 18.6432L1.80212 19.2497C1.2873 19.4115 0.822954 19.0071 0.974372 18.4612L1.6507 16.1966C1.76174 15.8832 1.74155 15.5496 1.58004 15.2868C0.711915 13.6894 0.217285 11.9405 0.217285 10.242ZM8.99954 10.242C8.99954 10.9598 9.57493 11.536 10.2916 11.5462C11.0083 11.5462 11.5837 10.9598 11.5837 10.2521C11.5837 9.53433 11.0083 8.95808 10.2916 8.95808C9.58502 8.94797 8.99954 9.53433 8.99954 10.242ZM13.653 10.2521C13.653 10.9598 14.2284 11.5462 14.9451 11.5462C15.6618 11.5462 16.2372 10.9598 16.2372 10.2521C16.2372 9.53433 15.6618 8.95808 14.9451 8.95808C14.2284 8.95808 13.653 9.53433 13.653 10.2521ZM5.63772 11.5461C4.93111 11.5461 4.34563 10.9598 4.34563 10.2521C4.34563 9.53433 4.92101 8.95808 5.63772 8.95808C6.35443 8.95808 6.92982 9.53433 6.92982 10.2521C6.92982 10.9598 6.35443 11.536 5.63772 11.5461Z" fill="white" fill-opacity="0.8"/>
</svg>
