<svg xmlns="http://www.w3.org/2000/svg" width="21" height="17" fill="none" viewBox="0 0 21 17">
  <path fill="#fff" d="M10.749.7c5.465 0 9.9 4.434 9.9 9.9 0 1.822-.516 3.54-1.375 4.984-.172.344-.55.516-.928.516H3.117c-.378 0-.756-.172-.928-.516C1.33 14.141.85 12.422.85 10.6c0-5.466 4.4-9.9 9.9-9.9Zm0 2.2c-.62 0-1.1.516-1.1 1.1 0 .619.48 1.1 1.1 1.1a.934.934 0 0 0 .584-.206l.31-.928c.034-.104.103-.172.137-.241-.138-.447-.55-.825-1.031-.825Zm-6.6 9.9c.584 0 1.1-.481 1.1-1.1 0-.584-.516-1.1-1.1-1.1-.62 0-1.1.516-1.1 1.1 0 .619.48 1.1 1.1 1.1Zm1.65-5.5c.584 0 1.1-.481 1.1-1.1 0-.584-.516-1.1-1.1-1.1-.62 0-1.1.516-1.1 1.1 0 .619.48 1.1 1.1 1.1Zm8.456-2.475c.137-.413-.069-.894-.516-1.031-.447-.172-.893.068-1.03.515l-2.132 6.325A2.177 2.177 0 0 0 8.549 12.8c0 .412.103.79.275 1.1h3.815c.172-.31.31-.688.31-1.1 0-.653-.31-1.238-.79-1.65l2.096-6.325Zm.516 1.96a1.2 1.2 0 0 0 .928.55c.584 0 1.1-.516 1.1-1.1 0-.62-.516-1.1-1.1-1.1-.138 0-.275 0-.413.068l-.515 1.581Zm2.578 6.015c.584 0 1.1-.481 1.1-1.1 0-.584-.516-1.1-1.1-1.1-.62 0-1.1.516-1.1 1.1 0 .619.48 1.1 1.1 1.1Z"/>
  <a>
    <path d="M.159-1.62h19.8v20.24H.159z"/>
  </a>
</svg>
