<svg xmlns="http://www.w3.org/2000/svg" width="20" height="14" fill="none" viewBox="0 0 20 14">
  <path fill="#000" fill-opacity=".5" d="M17.625 11.094c.469.937 1.156 1.687 1.156 1.687.219.219.25.531.157.781a.706.706 0 0 1-.657.438c-1.687 0-3.031-.625-3.937-1.188A9.002 9.002 0 0 1 12.5 13c-2.719 0-5-1.25-6-3.031-.281-.063-.594-.094-.875-.156-.906.562-2.25 1.218-3.906 1.218a.768.768 0 0 1-.688-.437C.938 10.313 1 10 1.188 9.813c0-.032.687-.782 1.187-1.72C1.5 7.22 1 6.157 1 5c0-2.75 2.906-5 6.5-5 2.688 0 5 1.281 5.969 3.094C16.594 3.438 19 5.5 19 8c0 1.188-.531 2.25-1.375 3.094ZM5.344 8.188l.625.156c.5.125 1 .156 1.531.156 2.688 0 5-1.594 5-3.5 0-1.875-2.313-3.5-5-3.5-2.719 0-5 1.625-5 3.5 0 .906.5 1.594.906 2l.781.781-.468.969a3.338 3.338 0 0 0-.25.469 5.479 5.479 0 0 0 1.344-.688l.53-.344ZM16.562 10c.407-.406.938-1.094.938-2 0-1.531-1.531-2.844-3.531-3.313 0 .125.031.22.031.313 0 2.531-2.438 4.625-5.625 4.969.906.906 2.438 1.531 4.125 1.531.5 0 1.031-.031 1.531-.156l.594-.156.563.343c.437.281.874.531 1.343.688-.093-.156-.187-.313-.25-.469l-.5-.969.781-.781Z"/>
  <a>
    <path d="M0-1.2h18v18.4H0z"/>
  </a>
</svg>
