<svg width="73" height="73" viewBox="0 0 73 73" fill="none" xmlns="http://www.w3.org/2000/svg">
<rect x="8.97803" y="8.23657" width="56" height="56" rx="28" fill="white"/>
<g filter="url(#filter0_d_38_139)">
<rect x="8.97803" y="8.23657" width="56" height="56" rx="28" fill="white" shape-rendering="crispEdges"/>
<g clip-path="url(#clip0_38_139)">
<path d="M39.318 45.4366C39.318 47.0066 38.128 48.2366 36.538 48.2366C34.958 48.2366 33.768 47.0066 33.768 45.4366C33.768 43.8666 34.958 42.6366 36.538 42.6366C38.128 42.6366 39.318 43.8666 39.318 45.4366ZM36.788 34.5566C38.198 33.3266 40.088 32.5066 40.088 30.6866C40.088 29.2366 38.848 28.3266 37.138 28.3266C35.018 28.3266 33.618 29.8066 33.588 31.7566H28.728C28.858 27.5366 31.938 24.2366 37.318 24.2366C42.178 24.2366 45.228 26.7566 45.228 30.5566C45.228 32.9166 44.138 34.3666 42.928 35.3366C41.248 36.6666 40.088 37.2266 39.438 37.9466C38.938 38.5166 38.818 38.9866 38.788 39.8966H34.428C34.428 37.2566 35.078 35.9966 36.788 34.5566Z" fill="#111111"/>
</g>
</g>
<defs>
<filter id="filter0_d_38_139" x="0.978027" y="0.236572" width="72" height="72" filterUnits="userSpaceOnUse" color-interpolation-filters="sRGB">
<feFlood flood-opacity="0" result="BackgroundImageFix"/>
<feColorMatrix in="SourceAlpha" type="matrix" values="0 0 0 0 0 0 0 0 0 0 0 0 0 0 0 0 0 0 127 0" result="hardAlpha"/>
<feOffset/>
<feGaussianBlur stdDeviation="4"/>
<feComposite in2="hardAlpha" operator="out"/>
<feColorMatrix type="matrix" values="0 0 0 0 0 0 0 0 0 0 0 0 0 0 0 0 0 0 0.1 0"/>
<feBlend mode="normal" in2="BackgroundImageFix" result="effect1_dropShadow_38_139"/>
<feBlend mode="normal" in="SourceGraphic" in2="effect1_dropShadow_38_139" result="shape"/>
</filter>
<clipPath id="clip0_38_139">
<rect width="24" height="24" fill="white" transform="translate(24.978 24.2366)"/>
</clipPath>
</defs>
</svg>
