<svg width="17" height="17" viewBox="0 0 17 17" fill="none" xmlns="http://www.w3.org/2000/svg">
<path d="M7.45719 10.9033C5.25053 10.9033 3.45719 9.10997 3.45719 6.9033C3.45719 4.69663 5.25053 2.9033 7.45719 2.9033C9.66386 2.9033 11.4572 4.69663 11.4572 6.9033C11.4572 9.10997 9.66386 10.9033 7.45719 10.9033ZM16.2039 12.8233L13.3639 9.9833C13.8653 9.03425 14.1263 7.97668 14.1239 6.9033C14.1239 3.2233 11.1372 0.236633 7.45719 0.236633C3.77719 0.236633 0.790527 3.2233 0.790527 6.9033C0.790527 10.5833 3.77719 13.57 7.45719 13.57C8.57053 13.57 9.61719 13.2966 10.5372 12.81L13.3772 15.65C13.7522 16.0245 14.2605 16.2349 14.7905 16.2349C15.3205 16.2349 15.8289 16.0245 16.2039 15.65C16.5784 15.275 16.7888 14.7666 16.7888 14.2366C16.7888 13.7066 16.5784 13.1983 16.2039 12.8233Z" fill="#5F5F5F"/>
</svg>
