<svg width="21" height="21" viewBox="0 0 21 21" fill="none" xmlns="http://www.w3.org/2000/svg">
<path d="M19.6381 0.606403C19.1331 0.0881671 18.3858 -0.104901 17.689 0.0983286L1.44034 4.82342C0.705164 5.02766 0.184075 5.61398 0.043704 6.35882C-0.0996965 7.11686 0.401195 8.07915 1.05559 8.48155L6.1362 11.6042C6.65729 11.9243 7.32986 11.844 7.76107 11.4091L13.5789 5.55504C13.8717 5.2502 14.3565 5.2502 14.6493 5.55504C14.9422 5.84973 14.9422 6.32731 14.6493 6.63216L8.82142 12.4872C8.3892 12.9211 8.30841 13.5968 8.62652 14.1212L11.7308 19.2527C12.0944 19.8624 12.7205 20.2079 13.4072 20.2079C13.488 20.2079 13.5789 20.2079 13.6597 20.1977C14.4474 20.0961 15.0735 19.5576 15.3057 18.7954L20.1228 2.56757C20.3349 1.87659 20.143 1.12464 19.6381 0.606403" fill="white"/>
</svg>
