<svg width="31" height="31" viewBox="0 0 31 31" fill="none" xmlns="http://www.w3.org/2000/svg">
<g clip-path="url(#clip0_38_132)">
<path d="M15.478 0.236572C11.4998 0.236572 7.68447 1.81692 4.87143 4.62997C2.05838 7.44302 0.478027 11.2583 0.478027 15.2366C0.478027 19.2148 2.05838 23.0301 4.87143 25.8432C7.68447 28.6562 11.4998 30.2366 15.478 30.2366C19.4563 30.2366 23.2716 28.6562 26.0846 25.8432C28.8977 23.0301 30.478 19.2148 30.478 15.2366C30.478 11.2583 28.8977 7.44302 26.0846 4.62997C23.2716 1.81692 19.4563 0.236572 15.478 0.236572ZM8.44053 14.7491C8.73315 14.459 9.1285 14.2963 9.54053 14.2963C9.95255 14.2963 10.3479 14.459 10.6405 14.7491L13.603 17.6991L20.3155 11.0116C20.6152 10.7634 20.9967 10.636 21.3853 10.6542C21.774 10.6725 22.1418 10.8351 22.4169 11.1102C22.692 11.3853 22.8546 11.7531 22.8729 12.1418C22.8911 12.5304 22.7637 12.9119 22.5155 13.2116L13.603 22.1116L8.44053 16.9491C8.15046 16.6565 7.98771 16.2611 7.98771 15.8491C7.98771 15.437 8.15046 15.0417 8.44053 14.7491Z" fill="#111111"/>
</g>
<defs>
<clipPath id="clip0_38_132">
<rect width="30" height="30" fill="white" transform="translate(0.478027 0.236572)"/>
</clipPath>
</defs>
</svg>
