<svg xmlns="http://www.w3.org/2000/svg" width="19" height="16" fill="none" viewBox="0 0 19 16">
  <path fill="#C2C7D0" d="M6.069 1.275v2.75a.814.814 0 0 1-.825.825H1.772c-.481 0-.825-.344-.825-.825v-2.75c0-.447.344-.825.825-.825h3.472c.447 0 .825.378.825.825Zm6.222 8.25a.814.814 0 0 1-.825.825H7.994a.814.814 0 0 1-.825-.825v-2.75c0-.447.378-.825.825-.825h3.472c.447 0 .825.378.825.825v2.75Zm1.1-8.25c0-.447.378-.825.825-.825h3.506c.447 0 .825.378.825.825v2.75a.814.814 0 0 1-.825.825h-3.506a.814.814 0 0 1-.825-.825v-2.75Zm-1.1 2.75a.814.814 0 0 1-.825.825H7.994a.814.814 0 0 1-.825-.825v-2.75c0-.447.378-.825.825-.825h3.472c.447 0 .825.378.825.825v2.75ZM5.244 5.95c.447 0 .825.378.825.825v2.75a.814.814 0 0 1-.825.825H1.772c-.481 0-.825-.344-.825-.825v-2.75c0-.447.344-.825.825-.825h3.472ZM.947 12.275c0-.447.344-.825.825-.825h3.472c.447 0 .825.378.825.825v2.75a.814.814 0 0 1-.825.825H1.772c-.481 0-.825-.344-.825-.825v-2.75Zm13.269-1.925a.814.814 0 0 1-.825-.825v-2.75c0-.447.378-.825.825-.825h3.506c.447 0 .825.378.825.825v2.75a.814.814 0 0 1-.825.825h-3.506Zm0 5.5a.814.814 0 0 1-.825-.825v-2.75c0-.447.378-.825.825-.825h3.506c.447 0 .825.378.825.825v2.75a.814.814 0 0 1-.825.825h-3.506Zm-7.047-3.575c0-.447.378-.825.825-.825h3.472c.447 0 .825.378.825.825v2.75a.814.814 0 0 1-.825.825H7.994a.814.814 0 0 1-.825-.825v-2.75Z"/>
  <a>
    <path d="M.147-1.62h17.6v20.24H.147z"/>
  </a>
</svg>
